<?xml version="1.0" encoding="utf-8"?>
<svg xmlns="http://www.w3.org/2000/svg" viewBox="70.698 104.229 654.991 774.488" width="654.991px" height="774.488px" xmlns:bx="https://boxy-svg.com"><defs><bx:export><bx:file format="svg" path="track_5.svg"/></bx:export></defs><g id="object-0" transform="matrix(0.987788, 0, 0, 0.987788, 4.862718, 6.001873)" style=""><path d="M 70.698 104.229 L 100.438 104.229 L 100.438 229.742 L 70.698 229.742 L 70.698 104.229 Z" style="fill: none; stroke-width: 3px; stroke: rgb(255, 255, 255);"/><path d="M 99.899 104.229 L 725.689 104.229 L 725.689 229.742 L 725.689 388.771 L 196.101 388.771 L 196.078 499.082 L 368.562 410.579 L 725.689 410.579 L 725.689 710.45 L 234.086 878.346 L 196.078 877.88 L 196.078 711.938 L 234.201 711.938 L 576.731 576.156 L 576.731 539.536 L 368.562 536.998 L 196.078 637.95 L 70.74 637.83 L 70.74 388.771 L 70.74 257.922 L 576.731 257.922 L 576.731 229.742 L 99.899 229.742 L 99.899 104.229 Z" style="stroke: rgb(255, 255, 255); fill: none; stroke-width: 3px;"/><path style="fill: rgb(216, 216, 216); stroke: rgb(255, 255, 255); stroke-width: 3px;" d="M 233.177 711.938 L 233.322 878.717"/><rect x="594.019" y="388.771" width="131.67" height="21.808" style="stroke: rgb(255, 255, 255); fill: none; stroke-width: 3px;"/><g transform="matrix(0.323459, 0, 0, 0.323459, 457.379966, 303.29336)" style=""><g transform="matrix(1, 0, 0, 1, -23.675296, -29.936447)"><path d="M 638.659 384.988 C 638.44 372.338 655.944 372.338 656.075 384.988 L 655.944 394.8 L 638.44 394.721 L 638.659 384.988 Z" style="stroke: rgb(255, 255, 255); stroke-width: 3px; fill: none;"/><rect x="633.68" y="394.8" width="26.799" height="19.87" style="stroke: rgb(255, 255, 255); fill: none; stroke-width: 3px;" rx="3.962" ry="3.962"/></g><g><ellipse style="stroke: rgb(255, 255, 255); stroke-width: 3px; fill: none;" cx="623.178" cy="373.097" rx="3.913" ry="3.913"/><rect x="606.846" y="406.328" width="2.941" height="3.131" style="stroke: rgb(255, 255, 255); stroke-width: 3px; fill: none;" transform="matrix(1, 0, 0, 1, 14.849253, -29.181522)" rx="0.632" ry="0.632"/></g></g></g></svg>